<svg xmlns="http://www.w3.org/2000/svg" viewBox="0 0 503.607 503.607">
  <path d="M294.946 457.778c.107-.386.213-.773.293-1.175l6.715-26.02c0-.63 0-1.261-.026-1.891.012-.207.026-.413.026-.627V228.368c.194-1.279.193-2.59-.209-3.795-.304-1.485-.945-2.761-1.863-3.772l-14.715-29.431v-48.682c0-33.574-5.036-67.987-15.108-100.721L259.987 5.875C258.308 2.518 254.951 0 251.593 0s-6.715 2.518-8.393 5.875l-10.072 36.092c-10.072 32.734-15.108 67.148-15.108 100.721v47.843l-15.948 31.895c-1.315 1.972-1.585 4.455-.839 6.651v198.988c0 .214.014.42.026.627-.026.63-.026 1.261-.026 1.891l6.715 25.18c.165.823.401 1.613.674 2.385-4.539 3.823-7.389 9.56-7.389 16.081v9.233c0 10.911 9.233 20.144 20.984 20.144h58.754c11.751 0 20.984-9.233 21.823-20.144v-9.233c.003-6.736-3.04-12.634-7.844-16.451zM224.734 452.407l-4.197-15.948h62.111l-4.197 15.948s-.839.839-1.679.839h-51.2c-.838 0-.838 0-.838-.839zm43.646-267.751h-33.574v-33.574h33.574v33.574zm-36.931 16.787h40.289l8.393 16.787h-57.075l8.393-16.787zm53.718 33.573v184.656H218.02V235.016h67.147zM249.075 47.003l2.518-9.233 2.518 9.233c8.394 28.538 13.43 57.915 14.269 87.292h-33.574c.84-29.377 5.876-58.754 14.269-87.292zm36.092 436.459c0 1.679-1.679 3.357-3.357 3.357h-59.593c-2.518 0-4.197-1.679-4.197-3.357v-9.233c0-2.518 1.679-4.197 4.197-4.197h3.357h52.039h3.357c2.518 0 4.197 1.679 4.197 4.197v9.233z"/>
</svg>
