<svg xmlns="http://www.w3.org/2000/svg" viewBox="0 0 96 96" role="img" aria-label="Voxel radio operator">
  <rect width="96" height="96" rx="14" fill="#07100c"/>
  <rect x="10" y="13" width="76" height="70" rx="8" fill="#101b16"/>
  <rect x="18" y="21" width="60" height="48" fill="#365f28"/>
  <rect x="18" y="21" width="16" height="16" fill="#70aa48"/>
  <rect x="34" y="21" width="16" height="16" fill="#4f8937"/>
  <rect x="50" y="21" width="16" height="16" fill="#608f3f"/>
  <rect x="66" y="21" width="12" height="16" fill="#2d5424"/>
  <rect x="22" y="37" width="14" height="14" fill="#ff2626"/>
  <rect x="58" y="37" width="14" height="14" fill="#ff2626"/>
  <rect x="39" y="53" width="18" height="7" fill="#050807"/>
  <rect x="39" y="53" width="5" height="5" fill="#e6ead7"/>
  <rect x="52" y="53" width="5" height="5" fill="#e6ead7"/>
  <rect x="14" y="34" width="8" height="25" fill="#161f25"/>
  <rect x="74" y="34" width="8" height="25" fill="#161f25"/>
  <rect x="11" y="39" width="8" height="15" fill="#7e8b8f"/>
  <rect x="77" y="39" width="8" height="15" fill="#7e8b8f"/>
  <rect x="22" y="15" width="52" height="7" fill="#1a2429"/>
  <rect x="61" y="59" width="20" height="6" fill="#1a2429"/>
  <rect x="78" y="55" width="7" height="7" fill="#9df57c"/>
  <rect x="69" y="12" width="10" height="9" fill="#71451f"/>
  <rect x="17" y="69" width="62" height="8" fill="#09110e"/>
  <rect x="22" y="74" width="52" height="4" fill="#24362c"/>
</svg>
